<?xml version="1.0" encoding="UTF-8" standalone="no"?>
<svg
   xmlns:dc="http://purl.org/dc/elements/1.1/"
   xmlns:cc="http://creativecommons.org/ns#"
   xmlns:rdf="http://www.w3.org/1999/02/22-rdf-syntax-ns#"
   xmlns:svg="http://www.w3.org/2000/svg"
   xmlns="http://www.w3.org/2000/svg"
   id="svg6"
   preserveAspectRatio="xMidYMid meet"
   viewBox="0 0 774.000000 774.000000"
   height="774.000000pt"
   width="774.000000pt"
   version="1.0">
  <metadata
     id="metadata12">
    <rdf:RDF>
      <cc:Work
         rdf:about="">
        <dc:format>image/svg+xml</dc:format>
        <dc:type
           rdf:resource="http://purl.org/dc/dcmitype/StillImage" />
      </cc:Work>
    </rdf:RDF>
  </metadata>
  <defs
     id="defs10" />
  <g
     id="g4"
     stroke="none"
     fill="#000000"
     transform="translate(0.000000,774.000000) scale(0.100000,-0.100000)">
    <path
       id="path2"
       d="M3675 7550 c-1523 -83 -2837 -1090 -3309 -2537 -124 -382 -178 -725 -178 -1143 0 -257 17 -445 58 -668 208 -1128 934 -2100 1954 -2617 409 -207 827 -331 1287 -380 197 -22 569 -22 766 0 644 69 1242 296 1761 668 778 557 1307 1391 1481 2332 77 420 77 909 -1 1333 -243 1325 -1199 2418 -2481 2836 -426 138 -893 200 -1338 176z m560 -165 c681 -72 1297 -324 1835 -750 47 -37 84 -73 84 -79 -1 -7 -522 -599 -1158 -1315 l-1157 -1301 -1150 0 -1149 0 0 1295 0 1294 93 76 c534 436 1175 705 1860 779 170 19 569 19 742 1z m-2830 -3432 c-3 -10 -120 -13 -535 -13 l-530 0 0 78 c0 165 43 475 96 691 145 590 448 1149 857 1577 l112 117 3 -1219 c1 -670 0 -1225 -3 -1231z m4800 0 c-3 -10 -231 -13 -1090 -13 -597 0 -1085 4 -1085 8 0 5 489 559 1088 1232 l1087 1223 3 -1219 c1 -670 0 -1225 -3 -1231z m419 2132 c189 -235 399 -587 509 -855 52 -126 124 -340 158 -470 60 -230 109 -566 109 -745 l0 -75 -530 0 -530 0 0 1228 1 1227 97 -100 c53 -55 137 -150 186 -210z m-5214 -3512 l-1 -1238 -102 105 c-400 411 -707 962 -858 1540 -60 232 -109 566 -109 750 l0 80 535 0 535 0 0 -1237z m2288 1210 c-14 -16 -494 -557 -1068 -1203 -573 -646 -1053 -1186 -1066 -1200 l-24 -25 0 1228 0 1227 1092 0 1092 0 -26 -27z m461 -14 c-150 -72 -274 -162 -405 -293 -175 -176 -282 -348 -358 -576 -55 -164 -70 -268 -70 -470 1 -254 39 -420 148 -645 72 -147 160 -269 281 -390 210 -210 452 -341 752 -407 142 -32 433 -32 579 0 397 86 720 301 939 627 46 68 98 170 168 325 15 33 16 9 16 -342 l1 -378 -96 -79 c-455 -377 -1015 -638 -1601 -746 -393 -73 -871 -74 -1263 -5 -488 87 -949 276 -1370 561 -137 93 -306 227 -302 240 1 5 524 596 1162 1314 l1160 1305 172 0 172 0 -85 -41z m1701 -124 c0 -91 -2 -165 -5 -165 -3 0 -38 28 -78 63 -108 94 -197 154 -315 214 l-107 53 253 0 252 0 0 -165z m340 50 l0 -115 -115 0 -115 0 0 115 0 115 115 0 115 0 0 -115z m1200 35 c0 -110 -26 -345 -55 -503 -64 -346 -165 -642 -333 -972 -146 -286 -362 -592 -574 -810 l-97 -100 -1 1233 0 1232 530 0 530 0 0 -80z m-2282 16 c526 -133 912 -547 1007 -1081 21 -118 21 -341 0 -460 -49 -273 -176 -517 -375 -716 -198 -199 -415 -315 -701 -376 -116 -24 -380 -24 -501 0 -472 95 -863 430 -1018 872 -57 164 -73 261 -74 450 0 138 4 189 22 272 104 484 448 864 915 1014 155 49 231 59 437 55 159 -3 200 -8 288 -30z m1092 -568 c0 -155 -2 -279 -4 -277 -2 2 -21 45 -41 96 -48 119 -135 266 -224 376 l-71 87 170 0 170 0 0 -282z" />
  </g>
</svg>
